<?xml version="1.0" encoding="utf-8"?>
<!-- Generator: Adobe Illustrator 19.0.1, SVG Export Plug-In . SVG Version: 6.00 Build 0)  -->
<svg version="1.1" id="Layer_1" xmlns="http://www.w3.org/2000/svg" xmlns:xlink="http://www.w3.org/1999/xlink" x="0px" y="0px"
	 viewBox="0 0 144 144" style="enable-background:new 0 0 144 144;" xml:space="preserve">
<style type="text/css">
	.st0{fill:#FFFFFF;}
	.st1{fill:#5C6670;}
	.st2{fill:#A4A9AD;}
	.st3{fill:#FF6C0C;}
	.st4{fill:#D0D5D6;}
	.st5{fill:#F7A800;}
	.st6{fill:#C9920E;}
	.st7{fill:#364A5E;}
	.st8{fill:#293B4D;}
	.st9{fill:#333E48;}
</style>
<g>
	<g>
		<circle class="st0" cx="71" cy="73.6" r="43"/>
		<path class="st1" d="M71,120.3c-25.7,0-46.7-20.9-46.7-46.7s21-46.7,46.7-46.7s46.7,20.9,46.7,46.7S96.7,120.3,71,120.3z M71,34.6
			c-21.5,0-39,17.5-39,39s17.5,39,39,39s39-17.5,39-39S92.5,34.6,71,34.6z"/>
		<path class="st2" d="M71,100.3c-14.7,0-26.7-12-26.7-26.7s12-26.7,26.7-26.7s26.7,12,26.7,26.7S85.7,100.3,71,100.3z M71,54.6
			c-10.5,0-19,8.5-19,19s8.5,19,19,19s19-8.5,19-19S81.5,54.6,71,54.6z"/>
		<circle class="st3" cx="71" cy="73.6" r="7.1"/>
	</g>
	<g>
		<polygon class="st4" points="81.2,68.2 71,73.6 76.4,63.4 		"/>
		<polygon class="st2" points="71,73.6 81.2,68.2 79.7,66.7 		"/>
		
			<rect x="90.5" y="29.4" transform="matrix(0.7071 0.7071 -0.7071 0.7071 63.3519 -51.5235)" class="st5" width="6.7" height="42.6"/>
		
			<rect x="94.4" y="31.1" transform="matrix(0.7071 0.7071 -0.7071 0.7071 64.9984 -52.1862)" class="st6" width="2.1" height="42.6"/>
		<polygon class="st7" points="75,71.5 71,73.6 73.1,69.6 		"/>
		<polygon class="st8" points="75,71.5 71,73.6 74.4,70.9 		"/>
		<rect x="107" y="32.4" transform="matrix(0.7071 0.7071 -0.7071 0.7071 56.574 -67.9526)" class="st4" width="6.7" height="3.9"/>
		
			<rect x="110.9" y="34" transform="matrix(0.7071 0.7071 -0.7071 0.7071 58.2204 -68.6153)" class="st2" width="2.1" height="3.9"/>
		<path class="st1" d="M115.5,33.8c0.6-0.6,1-1.4,1-2.4c0-0.9-0.4-1.8-1-2.4l0,0c-0.6-0.6-1.4-1-2.4-1c-0.9,0-1.8,0.4-2.4,1
			l-1.5,1.5l4.7,4.7L115.5,33.8z"/>
		<path class="st9" d="M112.5,33.8c0.6-0.6,1-1.4,1-2.4c0-0.9-0.4-1.8-1-2.4c-0.3-0.3-0.6-0.5-0.9-0.6c0.5-0.2,1-0.4,1.5-0.4
			c0.9,0,1.8,0.4,2.4,1s1,1.4,1,2.4c0,0.9-0.4,1.8-1,2.4l-1.5,1.5L112.5,33.8z"/>
	</g>
</g>
</svg>
