<?xml version="1.0" encoding="utf-8"?>
<!-- Generator: Adobe Illustrator 19.0.1, SVG Export Plug-In . SVG Version: 6.00 Build 0)  -->
<svg version="1.1" id="Layer_1" xmlns="http://www.w3.org/2000/svg" xmlns:xlink="http://www.w3.org/1999/xlink" x="0px" y="0px"
	 viewBox="0 0 144 144" style="enable-background:new 0 0 144 144;" xml:space="preserve">
<style type="text/css">
	.st0{clip-path:url(#SVGID_2_);}
	.st1{opacity:0.4;fill:#818181;}
	.st2{fill:#FDD1B0;}
	.st3{opacity:0.25;fill:#F9B38A;}
	.st4{opacity:0.7;fill:#FABD98;}
	.st5{opacity:0.7;}
	.st6{opacity:0.2;fill:#F37C3F;}
	.st7{fill:#FFFFFF;}
	.st8{fill:#3E1410;}
	.st9{fill:url(#SVGID_3_);}
	.st10{fill:url(#SVGID_4_);}
	.st11{fill:url(#hair_4_);}
	.st12{fill:#333E48;}
	.st13{fill:#49606C;}
	.st14{opacity:0.3;fill:#49606C;}
	.st15{fill:#F3F3F3;}
	.st16{fill:#E6E6E5;}
	.st17{fill:#0E222D;}
	.st18{opacity:0.5;fill:#0E222D;}
	.st19{opacity:0.7;fill:#11273D;}
	.st20{opacity:0.4;fill:#1A1A1A;}
	.st21{clip-path:url(#SVGID_6_);}
	.st22{fill:#A97C50;}
	.st23{opacity:0.7;fill:#A57E5C;}
	.st24{fill:#8B5E3C;}
	.st25{fill:#3C2415;}
	.st26{opacity:0.8;fill:#8B5E3C;}
	.st27{fill:#36160E;}
	.st28{opacity:0.25;fill:#8B5E3C;}
	.st29{fill:#25110B;}
	.st30{opacity:0.4;fill:#524F4F;}
	.st31{fill:url(#SVGID_7_);}
	.st32{opacity:0.3;fill:url(#SVGID_8_);}
	.st33{fill:url(#SVGID_9_);}
	.st34{opacity:0.3;fill:url(#SVGID_10_);}
	.st35{opacity:0.2;fill:url(#SVGID_11_);}
	.st36{fill:#131313;}
	.st37{fill:url(#SVGID_12_);}
	.st38{fill:url(#SVGID_13_);}
	.st39{fill:#010101;}
	.st40{fill:#F1F2F2;}
	.st41{opacity:0.3;fill:#303030;}
	.st42{fill:#E2231A;}
	.st43{opacity:0.75;fill:#C3C6C8;}
	.st44{fill:#0B0A0B;}
	.st45{fill:#282829;}
	.st46{fill:#1C1B1C;}
	.st47{fill:#F9A45D;}
	.st48{clip-path:url(#SVGID_15_);}
	.st49{opacity:0.25;fill:#333333;}
	.st50{fill:#A14423;}
	.st51{opacity:0.5;fill:#A14423;}
	.st52{fill:#3B3434;}
	.st53{fill:#2E2D26;}
	.st54{opacity:0.25;fill:#2E2D26;}
	.st55{opacity:0.2;fill:#7B7C68;}
	.st56{fill:#63A70A;}
	.st57{opacity:0.4;fill:#63A70A;}
	.st58{opacity:0.4;}
	.st59{fill:#1F130A;}
	.st60{fill:#42150D;}
	.st61{fill:#32130C;}
	.st62{fill:#210F0B;}
	.st63{fill:#D1D3D4;}
	.st64{fill:#EF4136;stroke:#58595B;stroke-width:0.1415;stroke-miterlimit:10;}
	.st65{fill:#AAB4BF;}
	.st66{fill:#9FB4B8;}
	.st67{fill:#5B6B71;}
	.st68{fill:#879FA9;}
	.st69{clip-path:url(#SVGID_17_);}
	.st70{fill:#C4D600;}
	.st71{opacity:0.7;fill:#753317;}
	.st72{clip-path:url(#SVGID_19_);}
	.st73{opacity:0.3;fill:#524F4F;}
	.st74{fill:#FBC19E;}
	.st75{opacity:0.2;fill:#F8C5A6;}
	.st76{fill:#FCC3A1;}
	.st77{opacity:8.000000e-002;fill:url(#SVGID_20_);}
	.st78{opacity:8.000000e-002;fill:url(#SVGID_21_);}
	.st79{opacity:0.29;fill:#FBC19E;}
	.st80{fill:#C2531A;}
	.st81{opacity:0.8;fill:#E7835E;}
	.st82{opacity:0.4;fill:#C9920E;}
	.st83{fill:#FF6C0C;}
	.st84{fill:#2D4C56;}
	.st85{fill:#F6D2AE;}
	.st86{fill:#0C2633;}
	.st87{opacity:0.1;fill:url(#SVGID_22_);}
	.st88{opacity:0.1;fill:url(#SVGID_23_);}
	.st89{opacity:0.2;fill:#FFFFFF;}
	.st90{fill:#008FBE;}
	.st91{fill:#004D71;}
	.st92{opacity:0.3;fill:#004D71;}
	.st93{fill:#F9AA7E;}
	.st94{opacity:0.3;fill:#EC8449;}
	.st95{fill:url(#left_arm_2_);}
	.st96{opacity:0.2;fill:#EC8449;}
	.st97{opacity:0.25;fill:#7B7C68;}
	.st98{fill:#111111;}
	.st99{fill:#F8A063;}
	.st100{opacity:0.7;fill:#F8A063;}
	.st101{opacity:0.3;fill:#F8A063;}
	.st102{opacity:0.3;fill:#FAAE72;}
	.st103{fill:#F15941;}
	.st104{fill:#E5442F;}
	.st105{fill:#CC2E27;}
	.st106{opacity:0.12;fill:url(#SVGID_24_);}
	.st107{opacity:0.12;fill:url(#SVGID_25_);}
	.st108{fill:#07090E;}
	.st109{fill:#1A1A1A;}
	.st110{fill:#7A3E74;}
	.st111{fill:#2D2D3B;}
	.st112{opacity:0.15;fill:#333E48;}
	.st113{fill:#732282;}
	.st114{opacity:0.59;fill:#732282;}
	.st115{opacity:0.8;clip-path:url(#SVGID_19_);fill:#E7835E;}
	.st116{clip-path:url(#SVGID_27_);}
	.st117{opacity:0.15;fill:#010101;}
	.st118{fill:#2D140D;}
	.st119{fill:url(#trousers_3_);}
	.st120{opacity:0.5;fill:url(#SVGID_28_);}
	.st121{opacity:0.5;fill:url(#SVGID_29_);}
	.st122{opacity:0.25;fill:#5D2D11;}
	.st123{opacity:0.1;fill:#5C5925;}
	.st124{fill:#FECD8F;}
	.st125{opacity:0.5;fill:#FAB072;}
	.st126{fill:#FFE9CC;}
	.st127{opacity:0.3;fill:#A67D52;}
	.st128{fill:#FECC8C;}
	.st129{opacity:0.85;}
	.st130{opacity:0.15;fill:#004D71;}
	.st131{opacity:0.2;fill:#004D71;}
	.st132{opacity:0.3;fill:#ACAE85;}
	.st133{fill:#FFEFD9;}
	.st134{opacity:0.58;fill:#F8A063;}
	.st135{fill:#F69FA5;}
	.st136{fill:#7F8C8D;}
	.st137{fill:#F8CB5C;}
	.st138{fill:#FDC78F;}
	.st139{fill:#D53227;}
	.st140{fill:#BBAF8A;}
	.st141{fill:none;stroke:#DCCCA0;stroke-width:0.182;stroke-miterlimit:10;}
	.st142{fill:none;stroke:#DCCCA0;stroke-width:0.182;stroke-miterlimit:10;stroke-dasharray:0.6995,0.6995;}
	.st143{fill:#E6E7E8;}
	.st144{fill:#A7A9AC;}
	.st145{fill:#FDC485;}
	.st146{fill:#A4A9AD;}
	.st147{opacity:0.3;fill:#333E48;}
	.st148{fill:#5C6670;}
	.st149{fill:#FFFFFF;stroke:#333E48;stroke-width:3.9122;stroke-miterlimit:10;}
	.st150{fill:#465259;}
	.st151{fill:#C3C6C8;}
	.st152{fill:#E42A27;}
	.st153{fill:#D0D5D6;}
	.st154{fill:#F7A800;}
	.st155{fill:#C9920E;}
	.st156{fill:#364A5E;}
	.st157{fill:#293B4D;}
	.st158{fill:#FFFFFF;stroke:#333E48;stroke-width:4.0877;stroke-miterlimit:10;}
	.st159{display:none;}
	.st160{display:inline;}
	.st161{fill:#F1F4F7;}
	.st162{fill:#94A2AF;}
	.st163{fill:#F8EBD4;}
	.st164{fill:#FFD162;}
	.st165{fill:#F5F6F7;}
	.st166{fill:#D1D5D7;}
	.st167{fill:#AAB5BE;}
	.st168{opacity:0.52;fill:#F7A800;}
	.st169{fill:#F6F9FB;}
	.st170{fill:#E7EAED;}
</style>
<g>
	<defs>
		<rect id="SVGID_1_" x="11.9" y="-164.7" width="110.2" height="147.8"/>
	</defs>
	<clipPath id="SVGID_2_">
		<use xlink:href="#SVGID_1_"  style="overflow:visible;"/>
	</clipPath>
	<g class="st0">
		<g id="guy_with_glasses_1_">
			<g id="jeans_7_">
				<path id="jeans_8_" class="st17" d="M32.1,39.8c6.5,1.4,51.6-2,59.2-1.5l7.5,4.8c0,0,3.7,17.8,4.2,21.4c0,0-6,36.7-0.5,58.9
					l-0.2,5.9c0.3,1.7,3.1,14.6,3.1,15.3c0.1,0.6,0.4,42.7,0.7,46.5c0,0,1.3,14.3,1.7,17.7c0.1,1.1-1.9,11.9-2.5,12.2
					c-3.3-2-12.5-5-14.4-5.5c-1.2-0.3-7.7,1.2-7.8,2c-0.5-1.3-1.9-5.9-1.8-6.3c0.4-2.6,1.5-6.1-0.3-7.2l2.2-43.5L81,139.2
					c0-2.3-0.2-5.9-0.5-8.9c-0.1-1.3-2.6-7.9-2.9-10.6c-0.7-6.8-7.1-44.1-8.6-45.6c-2.6-0.8-5-1.1-5-1.1c-1.4-0.7-1.3,46.9-0.5,54.8
					l-0.3,7c0,0,2.4,7.1,2.6,7.7c1.7,5.9,1.6,45.8,1.9,48.9c0.2,2.2,1.8,18.7,1.8,18.7l-0.9,7.8c-6.2,0-19.3-5.3-26.7-10.5
					c0.4-1.6,2.3-6.2,2.3-6.2l-0.6-5.5c0,0,1.7-22.3,1.6-22.8c-0.3-2.4-1.7-31.4-3.6-38.2c0,0-1.3-6-2.1-7.4c0,0-6.2-47.1-8.1-59.2
					l-2.9-7C27.7,58.3,30.3,42.2,32.1,39.8z"/>
				<path id="highlight_1_" class="st18" d="M38.4,48.4c3.4,0.6,9.9,3,13.8,3.2c3.7,0.2,28.9-0.3,28.9-0.3
					c3.6,12.7,13,20.3,14.4,21.6c0.3,8.5,1.6,52.4,0.5,55.6c0,0-6.1,6.2-9,6.2c-4.2-0.7-8.7-15-10.4-23.9
					c-2.2-11.3-3.8-32.8-6.4-38.4c0,0-8.7-3.1-13.3-4.1c-0.7,16.5-2.3,61.5-4.7,62.1c-4.7,1.2-10.5-3.6-10.5-3.6
					c-1.3-2.5-6.5-50.4-6.7-56.4c0,0-3.8-6.9-3.7-7.7C34.4,59.1,37.8,52.2,38.4,48.4z"/>
				<path id="zip_4_" class="st19" d="M55.9,53.8c0.1,1.6,0.4,3.2,0.8,4.7c0.4,1.5,0.9,3,1.6,4.4c0.7,1.4,1.5,2.7,2.5,3.8
					c0.9,0.9,1.9,1.6,3,1.8l-0.2-1.3l-0.2-2l-0.2-2l-0.1-2l0-2c0-0.7,0.1-1.3,0.1-2l0.2-2c0.1-0.6,0.2-1.3,0.3-1.9
					c0,0.7-0.1,1.3-0.1,2l0,2l0,2l0.1,2c0.1,1.3,0.2,2.6,0.4,3.9l0.3,1.9l0.3,1.9l0.1,0.6l-0.5,0c-0.4,0-0.8-0.1-1.2-0.2
					c-0.4-0.1-0.8-0.3-1.1-0.5c-0.4-0.2-0.7-0.4-1-0.7c-0.3-0.3-0.6-0.5-0.9-0.8c-0.5-0.6-1-1.3-1.4-1.9c-0.4-0.7-0.8-1.4-1.1-2.2
					c-0.6-1.5-1.1-3-1.4-4.6c-0.2-0.8-0.3-1.6-0.3-2.4C55.9,55.4,55.8,54.6,55.9,53.8z"/>
			</g>
			<g id="t-shirt_7_">
				<path id="t-shirt_8_" d="M33.2-9.2c0,0-10.7,0-14.4-2c1.2-8.6,3.7-34.1,6.4-36.9c1.9-2,19.3-10.4,19.8-11.4l-0.2-0.7
					c1.7-0.8,3.7-1.6,4.4-2c1.2,5.7,18.9,11.6,34.3-0.3c0.7,0.4,2.6,1.1,4.1,1.7l-0.1,0.7c7.6,3.2,20.2,8.5,22.2,10.9
					c3.5,4.1,7.3,35.9,7.4,41.9c-6,1.4-14.7,3.9-20.5,3c-0.1,0.1,2.6,6.9,2.6,14.5c0.1,13.4-2.6,33.9-3.9,34.9
					c-1.5,1.1-28.7,3.6-37.5,3.6c-15.2,0.1-23.8-3.1-25.9-7.8C31.5,39.7,32.1-5.9,33.2-9.2z"/>
				<g id="shadows_3_">
					<path class="st20" d="M87.6,41.1c1.9-1.9-10.6,1-8.8-1.7c1.5-2.3,12.8-7,10.4-12.5c-8.1,4.4-13.7,7.5-14.8,6.6
						c0-1.2,17.3-11.1,18.6-24.6c1.5-15.2-3.1-39.2,4-57.5c-3.6,13.7-0.8,36.2,0.7,37.8c1.7,1.8,8.9,3.9,19.4,3.5
						c-6,1.4-14.7,3.9-20.5,3c-0.1,0.1,2.6,6.9,2.6,14.5c0.1,13.4-2.6,33.9-3.9,34.9c-1.2,0.9-19.5,2.7-31,3.4
						C79,46.6,86.4,42.3,87.6,41.1z"/>
					<path class="st20" d="M32.3-41.6c-0.2,18.9,1.2,23.9,3.8,30.4c-0.4,7.2,1,12.3,2.5,16c3.5,8.6,6.7,11.8,6.3,13.1
						c-0.3,1.1-6.6-5.1-7.2-4.4c-4.4,4.5-1.6,20.9,4.4,27.2c7,7.3-3.9-0.2-4.6,1.5c-0.8,2.1,1.2,4.6,15.3,6.6
						c-12.2-0.6-19.2-3.5-21-7.7c-0.3-1.1,0.2-37,1.1-47.5c0.3-1,0.6-1.9,0.4-2.6C30.9-17.2,31.2-37,32.3-41.6z"/>
				</g>
			</g>
			<g id="arms_1_">
				<g>
					<path class="st2" d="M84.5,48.2c2.8-3.5,4.1-1.3,5.2-3.1c3.4-5.5,3.2-17.9,4.7-23.2c1.1-3.9,3.2-9.1,3.1-12.6
						c-0.1-5.1-1.3-8.4-1-13.7c5.9,0.1,18.4-2.5,18.4-2.5c0.9,4.8-0.7,14.8-1.7,21.7c-1.4,9.3-4.7,21.5-8.3,30
						c-1.5,3.7-3.5,7-5.3,10.3c-0.9,1.6-2.2,8.4-3.5,9.3C90.1,62.7,84.3,51.8,84.5,48.2z"/>
					<path class="st3" d="M99.6,55.3c-0.9,1.6-2.2,8.4-3.5,9.3c-5.9-1.8-11.7-12.8-11.5-16.3c0.4-0.5,0.8-0.9,1.1-1.2
						c0.8,6.3,3.9,9.1,6.3,10.5c3.9,2.2,6.7-3.9,8.4-7.2c3.2-6.1,12.2-26.3,11.6-46.5c-0.2-6.4-15.4-7.6-15.4-7.6c0-0.2,0-0.3,0-0.5
						c5.9,0.1,18.4-2.5,18.4-2.5c0.9,4.8-0.7,14.8-1.7,21.7c-1.4,9.3-4.7,21.5-8.3,30C103.3,48.6,101.4,51.9,99.6,55.3z"/>
				</g>
				<g>
					<path class="st2" d="M22.6-10c0,0,4.8,0.9,10.6,0.9c0.7,3.5,1.2,10.6,2.1,16.1c0.8,5.1-6.6,34.7,0.7,38.2
						c0,3.3-3.3,9.3-6.3,13.6C26,54.2,24,47.9,23.6,46c0.9-8.7-0.1-19.8-0.6-26.5c-0.6-6.9,0.7-9.9,0.5-15.1
						C23.2-0.2,22.6-4.3,22.6-10z"/>
					<path class="st3" d="M35.4,6.9c0.8,5.1-6.6,34.7,0.7,38.2c0,3.3-3.3,9.3-6.3,13.6c-3.6-4.2-5.5-9.9-6.1-12.2l0,0
						c1.7,3.1,5.7,5,9.5,0.5c0,0-1.2-5.2-1.5-7.8c-0.3-1.9,0.2-15,1-20.4c1.3-8.5,0.9-25.1-10-27.6c0-0.4,0-0.8,0-1.2
						c0,0,4.8,0.9,10.6,0.9C33.9-5.7,34.4,1.4,35.4,6.9z"/>
				</g>
			</g>
		</g>
	</g>
</g>
<g>
	<g>
		<g>
			<g>
				<path class="st153" d="M121.2,38.3C93.8,62.9,68,88.7,43.4,116.1c-12-4.1-17.1-9.2-21.2-21.2C49.6,70.3,75.4,44.5,100,17.1
					C111.9,21.2,117.1,26.3,121.2,38.3z"/>
			</g>
		</g>
		<path class="st146" d="M43.4,116.1C68,88.7,93.8,62.9,121.2,38.3c-2.9-8.4-6.3-13.4-12.2-17.1l-82.7,82.7
			C30,109.8,35,113.2,43.4,116.1z"/>
		<polygon class="st12" points="81.4,89.7 76.5,86.9 73,91.2 69.9,73.8 78.3,72.3 		"/>
		<polygon class="st12" points="94.2,72 89.3,74.5 90.7,79.8 74.6,72.7 78,64.8 		"/>
		<g>
			<polygon class="st42" points="71.7,56.2 73.4,55.6 74.9,56.7 76.7,56.7 77.8,58.2 79.5,58.7 80.1,60.5 81.6,61.5 81.5,63.4 
				82.7,64.8 82.1,66.6 82.7,68.3 81.5,69.8 81.6,71.6 80.1,72.7 79.5,74.4 77.8,75 76.7,76.5 74.9,76.5 73.4,77.6 71.7,77 
				69.9,77.6 68.5,76.5 66.6,76.5 65.6,75 63.8,74.4 63.3,72.7 61.8,71.6 61.8,69.8 60.7,68.3 61.3,66.6 60.7,64.8 61.8,63.4 
				61.8,61.5 63.3,60.5 63.8,58.7 65.6,58.2 66.6,56.7 68.5,56.7 69.9,55.6 			"/>
		</g>
	</g>
	<g>
		<path class="st7" d="M70.6,72.2c-0.5,0.5-1.2,0.5-1.6,0.1c-0.4-0.4-0.4-1.1,0-1.6c0.5-0.5,1.2-0.5,1.6-0.1
			C71.1,71.1,71.1,71.8,70.6,72.2 M69.4,71.1c-0.3,0.3-0.3,0.7-0.1,1c0.3,0.2,0.7,0.2,1-0.1s0.3-0.7,0.1-1
			C70.1,70.7,69.7,70.8,69.4,71.1"/>
		<path class="st7" d="M73.6,69.2c-0.2,0.2-0.4,0.2-0.6,0l-0.6-0.6c-0.2-0.1-0.4-0.1-0.6,0c-0.2,0.2-0.2,0.4,0,0.6l1,0.9
			c-0.2,0.2-0.4,0.2-0.6,0l-0.6-0.6c-0.2-0.1-0.4-0.1-0.6,0c-0.2,0.2-0.2,0.4,0,0.6l0.6,0.6c0.2,0.2,0.2,0.4,0,0.6l-1-0.9
			c-0.3-0.3-0.3-0.8,0-1.2c0.2-0.2,0.4-0.3,0.6-0.3c0-0.2,0.1-0.5,0.2-0.6c0.3-0.3,0.8-0.4,1.2,0L73.6,69.2z"/>
		<path class="st7" d="M74.5,68.2c-0.1,0.1-0.2,0.2-0.2,0.2c-0.2,0.1-0.5,0-0.6-0.1c0,0,0-0.1,0-0.1l0,0c0.2,0,0.4-0.1,0.6-0.3
			c0.3-0.3,0.3-0.7,0-0.9c-0.3-0.3-0.7-0.2-1,0.1c-0.3,0.3-0.4,0.7,0,1l1,1c0.2,0.2,0.2,0.4,0,0.6L73,68.3c-0.5-0.4-0.4-1.1,0-1.6
			c0.2-0.2,0.5-0.3,0.8-0.4c0.3,0,0.6,0.1,0.8,0.3C75,67,75,67.7,74.5,68.2"/>
		<path class="st7" d="M74.8,64.2l-0.6,0.7l1.8,1.8l0,0c-0.2,0.2-0.4,0.2-0.6,0l-1.5-1.5l-0.6,0.7c-0.2,0.2-0.4,0.2-0.6,0l2.2-2.2
			C75,63.8,75,64,74.8,64.2"/>
		<path class="st7" d="M79,63.1l-0.5-0.2l-1.1,1.1l0.2,0.5c0.1,0.2-0.1,0.5-0.2,0.6l-1.1-2.8c-0.1-0.2,0-0.3,0.1-0.4
			c0.1-0.1,0.3-0.1,0.4-0.1l2.8,1C79.5,63.1,79.2,63.2,79,63.1 M76.7,62.2l0.5,1.4l0.8-0.8L76.7,62.2L76.7,62.2z"/>
		<path class="st7" d="M67.9,71.9c-0.3,0-0.7,0.1-1,0.4c-0.5,0.5-0.5,1.2-0.1,1.6c0.4,0.4,1.2,0.4,1.6-0.1c0.2-0.2,0.3-0.5,0.4-0.8
			c0-0.2,0.2-0.4,0.4-0.4c0,0.2,0.1,0.4,0,0.7c-0.1,0.3-0.2,0.6-0.5,0.8c-0.6,0.6-1.6,0.7-2.2,0.1C66,73.7,66,72.7,66.6,72
			c0.4-0.5,1.1-0.6,1.7-0.5C68.3,71.8,68.1,71.9,67.9,71.9"/>
		<path class="st7" d="M79.6,62.7c-0.1,0.1-0.2,0.1-0.3,0c-0.1-0.1-0.1-0.2,0-0.3c0.1-0.1,0.2-0.1,0.3,0
			C79.7,62.4,79.7,62.6,79.6,62.7 M79.4,62.4c-0.1,0.1-0.1,0.2,0,0.2c0.1,0.1,0.2,0.1,0.2,0c0.1-0.1,0.1-0.2,0-0.2
			C79.5,62.3,79.4,62.3,79.4,62.4 M79.5,62.5C79.5,62.5,79.5,62.5,79.5,62.5C79.5,62.5,79.6,62.5,79.5,62.5L79.5,62.5
			C79.6,62.5,79.6,62.6,79.5,62.5C79.5,62.6,79.5,62.6,79.5,62.5l-0.1,0.1L79.5,62.5C79.4,62.6,79.4,62.5,79.5,62.5L79.5,62.5
			C79.5,62.5,79.5,62.5,79.5,62.5C79.5,62.5,79.5,62.5,79.5,62.5c-0.1,0-0.1,0-0.1,0l-0.1,0.1l0.1,0.1c0,0,0,0,0,0.1l0,0l-0.1-0.1
			c0,0,0,0,0-0.1l0.1-0.1C79.5,62.4,79.5,62.4,79.5,62.5C79.5,62.4,79.5,62.5,79.5,62.5"/>
		<path class="st7" d="M74.9,63.5l1.8,1.8c0.2,0.2,0.4,0.1,0.6,0l-1.8-1.8C75.3,63.3,75.1,63.3,74.9,63.5"/>
	</g>
</g>
</svg>
